<?xml version="1.0" encoding="UTF-8"?>
<svg version="1.1" viewBox="0 0 2048 1152" width="1280" height="1280" xmlns="http://www.w3.org/2000/svg">
<path transform="translate(0)" d="m0 0h2048v1152h-2048z" fill="#F7F8F8"/>
<path transform="translate(1233,25)" d="m0 0h25l21 7 19 9 21 13 28 20 90 65 19 14 18 13 14 10 19 14 17 12 19 14 14 10 19 14 14 10 36 26 19 14 54 39 19 14 72 52 38 28 14 10 18 13 19 14 14 10 18 13 19 14 36 26 15 11 14 10 12 9 13 9 3 2-2 4-11 8-14 11-28 21-18 14-32 24-18 14-16 12-17 13-55 42-21 16-16 12-38 29-21 16-16 12-17 13-21 16-16 12-18 14-21 16-19 14-18 14-16 12-18 14-12 9-17 13-16 12-13 10-16 12-18 14-28 21-17 13-18 14-19 14-26 20-17 13-16 12-20 8-23 6-16 3-7 1h-17l-15-4-8-4-7-6-6-10-4-17v-10l4-23 5-20 4-20 10-30 19-50 22-55 19-47 10-25h-1247l-1-1v-428l1-3 21-1 1227 1-9-28-14-47-26-86-14-46-10-34-2-9-2-18v-22l3-22 6-18 7-11 9-8z" fill="#FF1409"/>
</svg>
